<?xml version="1.0" encoding="UTF-8" standalone="no"?>
<svg
   xmlns:dc="http://purl.org/dc/elements/1.1/"
   xmlns:cc="http://creativecommons.org/ns#"
   xmlns:rdf="http://www.w3.org/1999/02/22-rdf-syntax-ns#"
   xmlns:svg="http://www.w3.org/2000/svg"
   xmlns="http://www.w3.org/2000/svg"
   xmlns:sodipodi="http://sodipodi.sourceforge.net/DTD/sodipodi-0.dtd"
   xmlns:inkscape="http://www.inkscape.org/namespaces/inkscape"
   enable-background="new 0 0 128 128"
   height="128px"
   id="Layer_1"
   version="1.1"
   viewBox="0 0 128 128"
   width="128px"
   xml:space="preserve"
   inkscape:version="0.91 r13725"
   sodipodi:docname="Icon_Performance.svg"><metadata
     id="metadata9"><rdf:RDF><cc:Work
         rdf:about=""><dc:format>image/svg+xml</dc:format><dc:type
           rdf:resource="http://purl.org/dc/dcmitype/StillImage" /><dc:title /></cc:Work></rdf:RDF></metadata><defs
     id="defs7" /><sodipodi:namedview
     pagecolor="#ffffff"
     bordercolor="#666666"
     borderopacity="1"
     objecttolerance="10"
     gridtolerance="10"
     guidetolerance="10"
     inkscape:pageopacity="0"
     inkscape:pageshadow="2"
     inkscape:window-width="1366"
     inkscape:window-height="741"
     id="namedview5"
     showgrid="false"
     inkscape:zoom="1.84375"
     inkscape:cx="6.4184127"
     inkscape:cy="22.725708"
     inkscape:window-x="0"
     inkscape:window-y="27"
     inkscape:window-maximized="1"
     inkscape:current-layer="Layer_1" /><path
     d="m 79.120475,57.28 -7.16142,0 9.95694,-14.93646 c 0.68754,-1.03026 0.75138,-2.35578 0.16716,-3.44862 C 81.497675,37.8025 80.359055,37.12 79.120475,37.12 l -16.8,0 c -1.20582,0 -2.31966,0.64638 -2.9169,1.69302 l -13.44,23.52 c -0.59388,1.04034 -0.59052,2.31672 0.01134,3.35328 0.60018,1.03698 1.70772,1.6737 2.90556,1.6737 l 11.0103,0 -10.5672,18.49302 c -0.83496,1.46034 -0.45948,3.31422 0.8778,4.33776 0.60522,0.46284 1.32384,0.68922 2.03784,0.68922 0.86646,0 1.72578,-0.33138 2.3772,-0.98448 l 26.88,-26.88 c 0.96138,-0.96138 1.24866,-2.40534 0.72828,-3.66198 C 81.704315,58.10026 80.478755,57.28 79.120475,57.28 Z m -26.88,30.24 12.2325,-21.40698 c 0,0 0,-0.31164 0,-0.43302 0,-0.92862 -0.75138,-1.68 -1.68,-1.68 l -13.9125,0 13.44,-23.52 16.8,0 -11.58444,17.3775 c 0,0 -0.38556,0.69552 -0.38556,1.1025 0,0.92862 0.75138,1.68 1.68,1.68 l 10.29,0 -26.88,26.88 z"
     id="path3"
     style="fill:#030000;fill-opacity:1"
     inkscape:connector-curvature="0" /></svg>
