<?xml version="1.0" encoding="UTF-8" standalone="no"?>
<svg
   xmlns:dc="http://purl.org/dc/elements/1.1/"
   xmlns:cc="http://creativecommons.org/ns#"
   xmlns:rdf="http://www.w3.org/1999/02/22-rdf-syntax-ns#"
   xmlns:svg="http://www.w3.org/2000/svg"
   xmlns="http://www.w3.org/2000/svg"
   xmlns:sodipodi="http://sodipodi.sourceforge.net/DTD/sodipodi-0.dtd"
   xmlns:inkscape="http://www.inkscape.org/namespaces/inkscape"
   enable-background="new 0 0 128 128"
   height="128px"
   id="Layer_1"
   version="1.1"
   viewBox="0 0 128 128"
   width="128px"
   xml:space="preserve"
   inkscape:version="0.91 r13725"
   sodipodi:docname="Icon_Quality.svg"><metadata
     id="metadata4236"><rdf:RDF><cc:Work
         rdf:about=""><dc:format>image/svg+xml</dc:format><dc:type
           rdf:resource="http://purl.org/dc/dcmitype/StillImage" /><dc:title></dc:title></cc:Work></rdf:RDF></metadata><defs
     id="defs4234" /><sodipodi:namedview
     pagecolor="#ffffff"
     bordercolor="#666666"
     borderopacity="1"
     objecttolerance="10"
     gridtolerance="10"
     guidetolerance="10"
     inkscape:pageopacity="0"
     inkscape:pageshadow="2"
     inkscape:window-width="1366"
     inkscape:window-height="741"
     id="namedview4232"
     showgrid="false"
     inkscape:zoom="1.84375"
     inkscape:cx="-44.474576"
     inkscape:cy="64"
     inkscape:window-x="0"
     inkscape:window-y="27"
     inkscape:window-maximized="1"
     inkscape:current-layer="Layer_1" /><path
     d="M112,36c-6.629,0-12,5.375-12,12c0,1.68,0.352,3.273,0.973,4.727L84,60L69.801,34.445  C73.48,32.391,76,28.508,76,24c0-6.625-5.371-12-12-12s-12,5.375-12,12c0,4.508,2.52,8.391,6.199,10.445L44,60l-16.973-7.273  C27.648,51.273,28,49.68,28,48c0-6.625-5.371-12-12-12S4,41.375,4,48s5.371,12,12,12c0.93,0,1.822-0.133,2.695-0.328L28,100v8  c0,4.422,3.582,8,8,8h56c4.418,0,8-3.578,8-8v-8l9.309-40.328C110.176,59.875,111.07,60,112,60c6.629,0,12-5.375,12-12  S118.629,36,112,36z M64,20c2.207,0,4,1.797,4,4s-1.793,4-4,4s-4-1.797-4-4S61.793,20,64,20z M12,48c0-2.203,1.793-4,4-4  s4,1.797,4,4s-1.793,4-4,4S12,50.203,12,48z M92,108H36v-8h56V108z M93.633,92H34.367L27.34,61.563l13.508,5.789  C41.871,67.789,42.941,68,43.996,68c2.828,0,5.547-1.5,6.996-4.117L64,40.477l13.008,23.406C78.457,66.5,81.176,68,84.004,68  c1.055,0,2.125-0.211,3.148-0.648l13.508-5.789L93.633,92z M112,52c-2.207,0-4-1.797-4-4s1.793-4,4-4s4,1.797,4,4S114.207,52,112,52  z"
     fill="#FFA000"
     id="path4230"
     style="fill:#000000;fill-opacity:1" /></svg>
