<?xml version="1.0" encoding="UTF-8" standalone="no"?>
<svg
   xmlns:dc="http://purl.org/dc/elements/1.1/"
   xmlns:cc="http://creativecommons.org/ns#"
   xmlns:rdf="http://www.w3.org/1999/02/22-rdf-syntax-ns#"
   xmlns:svg="http://www.w3.org/2000/svg"
   xmlns="http://www.w3.org/2000/svg"
   xmlns:sodipodi="http://sodipodi.sourceforge.net/DTD/sodipodi-0.dtd"
   xmlns:inkscape="http://www.inkscape.org/namespaces/inkscape"
   enable-background="new 0 0 128 128"
   height="128px"
   id="Layer_1"
   version="1.1"
   viewBox="0 0 128 128"
   width="128px"
   xml:space="preserve"
   inkscape:version="0.91 r13725"
   sodipodi:docname="Icon_Quality.svg"><metadata
     id="metadata4236"><rdf:RDF><cc:Work
         rdf:about=""><dc:format>image/svg+xml</dc:format><dc:type
           rdf:resource="http://purl.org/dc/dcmitype/StillImage" /><dc:title /></cc:Work></rdf:RDF></metadata><defs
     id="defs4234" /><sodipodi:namedview
     pagecolor="#ffffff"
     bordercolor="#666666"
     borderopacity="1"
     objecttolerance="10"
     gridtolerance="10"
     guidetolerance="10"
     inkscape:pageopacity="0"
     inkscape:pageshadow="2"
     inkscape:window-width="1366"
     inkscape:window-height="741"
     id="namedview4232"
     showgrid="false"
     inkscape:zoom="1.84375"
     inkscape:cx="47.211005"
     inkscape:cy="62.915254"
     inkscape:window-x="0"
     inkscape:window-y="27"
     inkscape:window-maximized="1"
     inkscape:current-layer="Layer_1" /><path
     d="m 92.8,47.2 c -3.9774,0 -7.2,3.225 -7.2,7.2 0,1.008 0.2112,1.9638 0.5838,2.8362 L 76,61.6 67.4806,46.267 C 69.688,45.0346 71.2,42.7048 71.2,40 c 0,-3.975 -3.2226,-7.2 -7.2,-7.2 -3.9774,0 -7.2,3.225 -7.2,7.2 0,2.7048 1.512,5.0346 3.7194,6.267 L 52,61.6 41.8162,57.2362 C 42.1888,56.3638 42.4,55.408 42.4,54.4 c 0,-3.975 -3.2226,-7.2 -7.2,-7.2 -3.9774,0 -7.2,3.225 -7.2,7.2 0,3.975 3.2226,7.2 7.2,7.2 0.558,0 1.0932,-0.0798 1.617,-0.1968 L 42.4,85.6 l 0,4.8 c 0,2.6532 2.1492,4.8 4.8,4.8 l 33.6,0 c 2.6508,0 4.8,-2.1468 4.8,-4.8 l 0,-4.8 5.5854,-24.1968 C 91.7056,61.525 92.242,61.6 92.8,61.6 c 3.9774,0 7.2,-3.225 7.2,-7.2 0,-3.975 -3.2226,-7.2 -7.2,-7.2 z M 64,37.6 c 1.3242,0 2.4,1.0782 2.4,2.4 0,1.3218 -1.0758,2.4 -2.4,2.4 -1.3242,0 -2.4,-1.0782 -2.4,-2.4 0,-1.3218 1.0758,-2.4 2.4,-2.4 z M 32.8,54.4 c 0,-1.3218 1.0758,-2.4 2.4,-2.4 1.3242,0 2.4,1.0782 2.4,2.4 0,1.3218 -1.0758,2.4 -2.4,2.4 -1.3242,0 -2.4,-1.0782 -2.4,-2.4 z m 48,36 -33.6,0 0,-4.8 33.6,0 0,4.8 z m 0.9798,-9.6 -35.5596,0 -4.2162,-18.2622 8.1048,3.4734 c 0.6138,0.2622 1.2558,0.3888 1.8888,0.3888 1.6968,0 3.3282,-0.9 4.1976,-2.4702 L 64,49.8862 71.8048,63.9298 C 72.6742,65.5 74.3056,66.4 76.0024,66.4 c 0.633,0 1.275,-0.1266 1.8888,-0.3888 L 85.996,62.5378 81.7798,80.8 Z M 92.8,56.8 c -1.3242,0 -2.4,-1.0782 -2.4,-2.4 0,-1.3218 1.0758,-2.4 2.4,-2.4 1.3242,0 2.4,1.0782 2.4,2.4 0,1.3218 -1.0758,2.4 -2.4,2.4 z"
     id="path4230"
     style="fill:#000000;fill-opacity:1"
     inkscape:connector-curvature="0" /></svg>
