<?xml version="1.0" encoding="UTF-8" standalone="no"?>
<svg
   xmlns:dc="http://purl.org/dc/elements/1.1/"
   xmlns:cc="http://creativecommons.org/ns#"
   xmlns:rdf="http://www.w3.org/1999/02/22-rdf-syntax-ns#"
   xmlns:svg="http://www.w3.org/2000/svg"
   xmlns="http://www.w3.org/2000/svg"
   xmlns:sodipodi="http://sodipodi.sourceforge.net/DTD/sodipodi-0.dtd"
   xmlns:inkscape="http://www.inkscape.org/namespaces/inkscape"
   enable-background="new 0 0 128 128"
   height="128px"
   id="Layer_1"
   version="1.1"
   viewBox="0 0 128 128"
   width="128px"
   xml:space="preserve"
   inkscape:version="0.91 r13725"
   sodipodi:docname="Icon_Performance.svg"><metadata
     id="metadata9"><rdf:RDF><cc:Work
         rdf:about=""><dc:format>image/svg+xml</dc:format><dc:type
           rdf:resource="http://purl.org/dc/dcmitype/StillImage" /><dc:title></dc:title></cc:Work></rdf:RDF></metadata><defs
     id="defs7" /><sodipodi:namedview
     pagecolor="#ffffff"
     bordercolor="#666666"
     borderopacity="1"
     objecttolerance="10"
     gridtolerance="10"
     guidetolerance="10"
     inkscape:pageopacity="0"
     inkscape:pageshadow="2"
     inkscape:window-width="1366"
     inkscape:window-height="741"
     id="namedview5"
     showgrid="false"
     inkscape:zoom="1.84375"
     inkscape:cx="-44.474576"
     inkscape:cy="64"
     inkscape:window-x="0"
     inkscape:window-y="27"
     inkscape:window-maximized="1"
     inkscape:current-layer="Layer_1" /><path
     d="M100,48H82.949l23.707-35.563c1.637-2.453,1.789-5.609,0.398-8.211C105.66,1.625,102.949,0,100,0H60  c-2.871,0-5.523,1.539-6.945,4.031l-32,56c-1.414,2.477-1.406,5.516,0.027,7.984C22.511,70.484,25.148,72,28,72h26.215  l-25.16,44.031c-1.988,3.477-1.094,7.891,2.09,10.328c1.441,1.102,3.152,1.641,4.852,1.641c2.063,0,4.109-0.789,5.66-2.344l64-64  c2.289-2.289,2.973-5.727,1.734-8.719C106.152,49.953,103.234,48,100,48z M36,120l29.125-50.969c0,0,0-0.742,0-1.031  c0-2.211-1.789-4-4-4H28L60,8h40L72.418,49.375c0,0-0.918,1.656-0.918,2.625c0,2.211,1.789,4,4,4H100L36,120z"
     fill="#03A9F4"
     id="path3"
     style="fill:#030000;fill-opacity:1" /></svg>
