<?xml version="1.0" ?><!DOCTYPE svg  PUBLIC '-//W3C//DTD SVG 1.1//EN'  'http://www.w3.org/Graphics/SVG/1.1/DTD/svg11.dtd'><svg enable-background="new 0 0 141.732 141.732" height="141.732px" id="Livello_1" version="1.1" viewBox="0 0 141.732 141.732" width="141.732px" x="0px" xml:space="preserve" xmlns="http://www.w3.org/2000/svg" xmlns:xlink="http://www.w3.org/1999/xlink" y="0px"><g id="Livello_10"><path d="M135.657,88.47H6.078V5.204h129.58L135.657,88.47L135.657,88.47z M141.054,91.072L141.054,91.072V2.604   c0-1.438-1.209-2.604-2.697-2.604H3.378c-1.491,0.001-2.7,1.166-2.7,2.604v88.469c0,1.438,1.209,2.604,2.7,2.604h51.291v15.609   H33.073c-1.491,0-2.7,1.165-2.7,2.604c0,1.437,1.209,2.602,2.7,2.602h0.001h75.585c1.49,0,2.699-1.165,2.699-2.602   c0-1.438-1.209-2.604-2.699-2.604H87.064V93.674h51.291C139.845,93.674,141.054,92.511,141.054,91.072"/></g><g id="Livello_1_1_"/></svg>